<svg xmlns="http://www.w3.org/2000/svg" viewBox="0 0 120 72" fill="none" stroke-linecap="round" stroke-linejoin="round"><path d="M59 38.5L59 39M59.5 38.5L59 39M60 36L59.5 38.5M60 36L60.5 35M60.5 35L62 34M62 34L63.5 33M65.5 31.5L63.5 33M65.5 31.5L65.5 30M65 28L65.5 30M64 26L65 28M64 26L63 24M63 22L63 24M63 23L63 24M63 22L63 20.5M63 23L63 21M63 20.5L62.5 19.5M62 17.5L62.5 19.5M60 15L62 17.5M60 15L61.5 11.5M64 9.5L61.5 11.5M64 9.5L60.5 12.5M69 17L66 16.5M64.5 17.5L66 16.5M64.5 17.5L62 17.5M69 17L68 20.5M67.5 21L68 20.5M67.5 21L63 22" stroke="#ED6EA7" stroke-width="1.2"/><path d="M53 9L52 11.5M52 11.5L51 14.5M51.5 17L51 14.5M53 20L54 23.5M59.5 27.5L60 29.5M61 31.5L59.5 31.5L60 29.5M61 31.5L63.5 31.5M66.5 31.5L63.5 31.5M66.5 31.5L68.5 31M71 31L68.5 31M71 31L68 31.5M56.5 4.5L57 2.5M56.5 4.5L57 2.5M56.5 4.5L55.5 7M55.5 7L54.5 9.5M61.5 27L59.5 27.5L60 29.5M53 9L54.5 9M53 9L54.5 9L55.5 7" stroke="#A69DCD" stroke-width="1.2"/><path d="M51.5 17L53 20M66.5 21.5L62.5 22.5M60 22.5L62.5 22.5M60 22.5L58 21.5M51.5 17L48.5 18.5M45.5 19L48.5 18.5M45.5 19L43.5 19.5M44 19L46 19M56.5 20L57.5 21.5M55 20L58 21.5M67.5 21L69.5 20.5M66.5 21.5L69.5 20.5M9.5 26.5L10.5 27M13 29L10.5 27M15.5 29.5L13 29M15.5 29.5L18.5 28.5M18.5 28.5L21.5 27.5M24.5 26.5L21.5 27.5M25 24.5L24.5 26.5M25 24.5L32 23.5M35.5 23.5L32 23.5M35.5 23.5L37.5 23.5M42.5 23.5L37.5 23.5M43 23.5L37.5 23.5M43 23.5L43.5 21M42.5 23.5L43.5 21M44 19L43.5 21M51.5 17L53 20M56.5 20L53 20M72 19.5L69.5 20.5M72 19.5L74 17.5M75.5 16L74 17.5M75.5 16L78.5 13M80 12.5L78.5 13M79.5 10.5L80 12.5M51.5 17L48.5 18.5M43.5 19.5L43.5 21M25 24.5L24 22.5M22 23L24 22.5M20 23.5L22 23M20 23.5L17 24.5M15 25.5L17 24.5" stroke="#E94F2D" stroke-width="1.2"/><path d="M55 24.5L54 23.5M59.5 27.5L56 27M85.5 18.5L84 19M82.5 20.5L84 19M82.5 20.5L80.5 21M67.5 16.5L69 17M67.5 16.5L68.5 17.5M68.5 17.5L68.5 20.5M66.5 21.5L68.5 20.5M55 19L58 21.5M51.5 17L53.5 16M51.5 17L54 16.5M45.5 19L43.5 19M43 17L43.5 19M42 14.5L43 17M42 14.5L41.5 12.5M41.5 12.5L40.5 10.5M40 9.5L40.5 10.5M36.5 9L40 9.5M36.5 9L34 8M31.5 7.5L34 8M31.5 7.5L29.5 7.5M29.5 7.5L28.5 12M28.5 12L28.5 13M29 10.5L28.5 13M41.5 13.5L40.5 10M44 19L43 17M56.5 20L54 16.5M59.5 27.5L61 27M61 27L64 26M67.5 24L64 26M67.5 24L69.5 23.5M69 23.5L70.5 23M69.5 20.5L70.5 23M77.5 21.5L80.5 21M77.5 21.5L76 21.5M77.5 21.5L76 21.5M76 21.5L70.5 23M71 23.5L74 22M76.5 21.5L74 22M76 21.5L74.5 22M55 20L52.5 19.5M55 19L55 20L53 20M55 20L53 20L54 23.5M55 19L53 20.5L54 23" stroke="#F39872" stroke-width="1.2"/><path d="M55 24.5L56 27M55 24.5L55 23M56 27L53.5 30M53.5 31L53.5 30M55 19L53.5 16M55 19L53.5 15.5M51.5 62L49.5 63.5M51.5 58.5L51.5 62M51.5 56L51.5 58.5M51.5 56L51 53M50 48.5L51 53M50 48.5L50 46.5M50 41L50 46.5M50 38L50 41M52.5 35.5L50 36L50 38M52.5 35.5L53.5 34M53.5 34L53.5 31.5M55.5 23L55 19M53.5 15.5L53 14M54 16.5L53 13.5M53.5 12L53 14M54 10L53.5 12M54 10L54.5 7M54.5 7L53.5 6M52.5 5L53.5 6M52.5 5L50.5 5M53 5L50.5 5" stroke="#7C6EB0" stroke-width="1.2"/><path d="M59.5 27.5L55.5 27.5M56 27.5L53.5 30M34.5 76.5L36 75.5L40 76M40 76L43 78M45 77.5L43 78M45 77.5L48 71M49.5 66.5L48 71M51.5 62L49.5 66.5M69.5 23.5L70.5 22.5M70 20L70.5 22.5" stroke="#E30613" stroke-width="1.2"/><path d="M63 9.5L61.5 10M63 9.5L61 10.5M59.5 12L61 10.5M59.5 12L59.5 14M59.5 14L59 17M57.5 18L59 17M56.5 18.5L57.5 18M57 18.5L56 19M56.5 18.5L55 20M55 23L56.5 22.5L55 20M55 23L51 25M48 27L51 25M48 27L45 28M45 28L42 28M45.5 28L42 28.5M42 28L40 28M42 28.5L40 28M37.5 28L40 28M35 28L37.5 28M35 28L32.5 28L32.5 29.5M31 31.5L32.5 29.5M31 31.5L27.5 31.5M27.5 31.5L25 31.5M25 31.5L22 32.5M46 23L49 22M49 22L52.5 20.5M55 20L52.5 20.5M45 28.5L44 24.5L46.5 23M42 28L45 28L45 29.5L45 28.5M42 28.5L45.5 29.5L44 24.5L46 23" stroke="#3AAA35" stroke-width="1.2"/><path d="M53.5 31L52 31.5M49 32L52 31.5M49 32L45.5 32.5M45 33.5L45.5 32.5M45 33.5L45 36M45 33.5L45.5 35M45 37.5L45 36M45 37.5L45.5 35M45 37.5L45 39.5L46.5 39.5M49 39.5L46.5 39.5M53.5 31.5L51.5 31.5M53.5 31.5L53.5 30" stroke="#00853E" stroke-width="1.2"/><path d="M80 19L80.5 21M80 19L77.5 18M75 18L77.5 18M75.5 18L72.5 20M75 18L72.5 20M70 18.5L72.5 20M70 18.5L68 17.5M68 17.5L66 16.5M67.5 21L64 22L63 20.5" stroke="#E71984" stroke-width="1.2"/><path d="M80 19.5L80 21M93.5 38.5L89.5 37.5M93.5 38.5L90 37.5M87.5 36.5L89.5 37.5M84 34L87.5 36.5M84 34L81 31M78.5 28.5L81 31M76.5 26.5L78.5 28.5M76.5 26.5L75 24.5M72.5 20L70 20M37.5 2L37.5 4L40 4M37.5 2L37 4L40.5 4M43 6.5L40.5 4M44.5 8L43 6.5M44.5 8L45.5 10M45.5 12.5L45.5 10M45.5 12.5L46.5 14M77.5 21.5L80 21M45.5 11.5L45 9M43.5 7.5L45 9M74 17.5L74.5 16.5M75.5 16L74.5 16.5M75.5 16L76.5 15M78.5 13L76.5 15" stroke="#ED6942" stroke-width="1.2"/><path d="M53.5 16L53 13.5M46.5 14L48 15M48 15L50.5 14.5M51.5 17L50.5 14.5M51.5 17L53.5 15.5M51.5 17L54 16.5M51.5 17L50.5 14.5M50.5 14.5L48 14.5M44.5 14.5L46.5 14M44.5 14.5L42.5 15M42.5 15L39.5 15.5M39.5 15.5L37 15.5M37 14L37 15.5M35.5 13L37 14M35.5 13L31.5 12M31.5 12L28 11M32 12L28 11M26 10.5L28 11M26 10.5L23.5 10M23.5 10L22 10M44 25.5L45 28.5M44 25.5L46 23M55 19L52.5 20.5M55 20L52.5 20.5M53 8.5L54 10M53 8.5L54.5 9.5" stroke="#AFCA0B" stroke-width="1.2"/><path d="M56 19L53 20" stroke="#86BC25" stroke-width="1.2"/><path d="M114.5 25.5L118 24.5M112 26.5L114.5 25.5M112 26.5L108 28.5M108 28.5L106.5 27M104.5 25.5L106.5 27M102 23.5L104.5 25.5M98 20L102 23.5M98 20L93 15.5M89.5 13.5L93 15.5M78 13L89.5 13.5M78 13L73 11M69 10L73 11M65 9L69 10M65 9L69 10" stroke="#6859A2" stroke-width="1.2"/><path d="M77 -7L71 2M63.5 9.5L71 2M63.5 9.5L60 15.5M59.5 22.5L60 15.5M59.5 22.5L59.5 27M60 35L59.5 27M52.5 37L59 37.5L60 35" stroke="#00ADEF" stroke-width="2.2"/><path d="M72.5 36L71 31.5M68.5 26L71 31.5M67 21.5L68.5 26M67 21.5L65 17M65 17L64 14M64 10L65 11.5L64 14M71.5 42L73.5 40L72.5 36" stroke="#FF6600" stroke-width="2.2"/><path d="M97.5 52.5L100 56.5M97.5 52.5L95 47.5M95 47.5L92 44M92 44L90 42.5L87.5 43M83 45.5L87.5 43M83 45.5L79.5 47.5L76.5 43.5M95 67.5L101.5 67M95 67.5L91.5 68.5L89 65.5M89 65.5L86 59.5M86 59.5L83.5 55.5M81 51L83.5 55.5M79 47.5L81 51M79.5 48L76.5 43.5M37 2L38 -1.5L42 -2.5M37 8.5L37 2M37 8.5L35.5 13.5M35.5 13.5L35 19M35 19L35 24M35 24L35 27.5M35.5 32L35 27.5M35.5 32L37 37.5L45.5 37.5M53 37L45.5 37.5M53 37L59 38M71.5 42L65.5 43L59 38M71.5 42L74.5 41L76.5 43.5" stroke="#187A36" stroke-width="2.2"/><path d="M72.5 36L76.5 43.5" stroke="#D81118" stroke-width="2.2"/></svg>