<svg xmlns="http://www.w3.org/2000/svg" viewBox="0 0 120 72" fill="none" stroke-linecap="round" stroke-linejoin="round"><path d="M48.5 28.5L50.5 29M51.5 29L50.5 29M51.5 29L52 28.5M52 28.5L53.5 28M53.5 28L54 27.5M54 27.5L54.5 26M55 26L54.5 26M55 26L56 26M56 26L57 25.5M58.5 25L57 25.5M59.5 25L58.5 25M61 25L59.5 25M61 25L62.5 25.5M62.5 25.5L63.5 25.5M64.5 25.5L63.5 25.5M64.5 25.5L65.5 26M67 26L65.5 26M69.5 25.5L67 26M71 25L69.5 25.5M71 25L72.5 24.5M72.5 24.5L73 23.5M74 22.5L73 23.5M74 22.5L74 21M73.5 20.5L72 20M70 18.5L72 20M67.5 16L70 18.5M67.5 16L65 13M65 13L62.5 11M61.5 9L62.5 11M61.5 9L60.5 7M52.5 30L53.5 29.5M54 29.5L53.5 29.5M54 29.5L55 29M56 29L55 29M56 29L57 29M57.5 28.5L57 29M57.5 28.5L58 28.5M59 28L58 28.5M59 28L60 27.5M61 27.5L60 27.5M61.5 27L61 27.5M61.5 27L62.5 26.5M65.5 26L62.5 26.5M28 29.5L30 31M33 33.5L30 31M36.5 35.5L33 33.5M36.5 35.5L39 34M39 34L42.5 32M49 33L42.5 32M49 33L53 30M54.5 30L53 30M54.5 30L58 31.5M58 31.5L60.5 31M60.5 31L62 28M63 27L62 28M63 27L65.5 26M70 18.5L65.5 16.5M61.5 32L62 32.5M61.5 32L61.5 31.5M62 31L61.5 31.5M63 30.5L62 31M63.5 30.5L64.5 30M64.5 30L65.5 29.5M65.5 29.5L67 28.5M67 28.5L68 28M68.5 27L68 28M69.5 25.5L68.5 27" stroke="#00843D" stroke-width="1.2"/><path d="M67.5 52L66 52M67.5 52L68.5 52M70.5 51L68.5 52M70.5 51L72 51M73 50.5L72 51M73 50.5L73.5 48M73 47L73.5 48" stroke="#DA291C" stroke-width="1.2"/><path d="M74 21L73.5 20.5M70.5 0.5L71 -2.5M70.5 0.5L69.5 9M69.5 12L69.5 9M69.5 12L69.5 14.5M71.5 18L69.5 14.5M71.5 18L74 20.5M74.5 21L74.5 22.5M73.5 24L74.5 22.5M73 24.5L73.5 24M73 24.5L73 25.5M70 26.5L73 25.5M70 26.5L68 28.5M68 28.5L66.5 30M65 31.5L66.5 30M64.5 34L65 31.5M64.5 34L63 36M62.5 38.5L63 36M61 41.5L62.5 38.5" stroke="#ED8B00" stroke-width="2.2"/><path d="M73 46.5L72.5 44M73.5 41.5L72.5 44M73.5 41.5L75.5 38M75.5 35L75.5 38M74.5 32L75.5 35M74.5 32L74.5 28M74.5 28L75 24.5M74 24L75 24.5M74 24L73 23.5M71 22L73 23.5M71 22L67.5 21.5M63.5 20.5L67.5 21.5M63.5 20.5L60 17.5M60 17.5L59.5 13M59 10.5L59.5 13M54.5 10.5L59 10.5M87.5 71.5L86.5 63M86.5 63L87 57M87 57L83 52.5M81 49.5L83 52.5M75.5 35L75 41L81 49.5" stroke="#DA291C" stroke-width="2.2"/><path d="M73.5 22L74 22.5M74 22.5L74.5 22.5M76 22.5L74.5 22.5M76 22.5L78.5 19.5M81 17.5L78.5 19.5M81 17.5L82.5 16M87 13.5L82.5 16M87 13.5L89 12.5M90 10L89 12.5M90 10L90 7M90 7L90 5" stroke="#003DA5" stroke-width="2.2"/><path d="M70 26.5L74 27L75 25M46.5 65L56 61.5L60 43.5L65 32L70 26.5M88 70.5L87 57M75.5 35L75 41.5L87 57M75.5 35L74 30L75 25.5M88 70.5L87 58L75 41L75.5 35L74 28L75 25.5M87 57L75 41L75.5 35L74 28L75 25.5M95.5 67L87.5 67L87 57M95.5 67L87.5 66.5L86.5 56.5L75 41.5L75.5 35L74 28L75 25M64.5 26L70 26M64.5 26L54.5 23M54.5 23L45.5 23L39 25M39 25L33 26M33 26L28.5 27M53 70.5L58.5 55.5L60 43.5L67 29.5M70 26.5L67 29.5M70 26.5L67 30M53 70.5L58.5 55.5L60 43.5L67 30M53 70.5L58 56M58 56L60 43.5L67 29.5M58 56L60 43.5L67 30M56.5 61.5L53 70.5M56.5 61.5L60 43.5L67 29.5M56.5 61.5L60 43.5L67 30M56.5 61.5L58 56M61 41L67 30M58 56L61 41M72.5 32.5L75 25M71.5 35.5L72.5 32.5M69.5 40.5L71.5 35.5M69.5 44L69.5 40.5M67.5 47.5L69.5 44M65.5 51L67.5 47.5M59.5 56.5L65.5 51M59.5 56.5L53 70.5M56.5 61.5L59.5 56.5M69.5 44L70 39.5M70 39.5L71.5 35.5M57 45.5L61 41M57 45.5L53.5 46M53.5 46L51.5 46.5M51.5 46.5L50 47.5M50 47.5L36.5 49.5M36.5 49.5L32 50M32 50L31.5 47.5M31.5 47.5L32 44M56 61.5L50.5 63M50.5 63L46.5 65M46.5 65L44 67M44 67L41 75M56 61.5L61 41M56 61.5L69 45.5L69.5 41L75 25M78 10L73.5 9L70 12L70 16.5L73 20M70.5 0.5L70 16L73 20M56 2L53.5 -1L54.5 -5M56 2L63 12L73 20M32 17.5L26 21.5M42.5 13.5L32 17.5M46 10.5L42.5 13.5M46 10.5L59.5 13M73 20L59.5 13M42.5 13.5L31 18M31 18L26 21.5M95.5 -7L87 7.5L82 11L78 10" stroke="#80276C" stroke-width="2.2"/></svg>